# xmcd CD database file
#
# Track frame offsets:
#	150
#	20124
#	40006
#	58938
#	75707
#	90666
#	118164
#	140941
#	158226
#	176249
#	202438
#	220172
#	238448
#	257663
#	279532
#	293475
#	313998
#	325044
#
# Disc length: 4569 seconds
#
# Revision: 0
# Processed by: cddbd v1.5.2PL0 Copyright (c) Steve Scherf et al.
# Submitted via: CDex 1.51
#
DISCID=2311d712
DTITLE=Various Artist - Lady Jazz (by La Première) [CD2)
DYEAR=2011
DGENRE=Jazz
TTITLE0=Lisa Ekdahl - Only You
TTITLE1=Hindi Zahra - Beautiful Tango (Unplugged)
TTITLE2=Isabelle Antena - Le Poisson Des Mers Du Sud
TTITLE3=Melanie De Biasio - Never Gonna Make It
TTITLE4=Stacey Kent - Ces Petits Riens 
TTITLE5=Axelle Red - Elle Danse Seule (Soul Version)
TTITLE6=Youn Sun Nah - La Chanson d'Hélène
TTITLE7=Lizz Wright - A Taste Of Honey
TTITLE8=Corinne Bailey Rae - Like A Star
TTITLE9=Cassandra Wilson - Closer To You
TTITLE10=Nouvelle Vague - In A Manner Of Speaking
TTITLE11=Amel Larrieux - Get Up
TTITLE12=Anna Domino - Rhythm
TTITLE13=Marc Moulin ft. Christa Jérôme - I Am You
TTITLE14=Little Dragon - Twice
TTITLE15=Koop - Koop Islands Blues
TTITLE16=Martina Topley Bird - Baby Blue
TTITLE17=Angela McCluskey -  It's Been Done
EXTD=YEAR: 2011
EXTT0=
EXTT1=
EXTT2=
EXTT3=
EXTT4=
EXTT5=
EXTT6=
EXTT7=
EXTT8=
EXTT9=
EXTT10=
EXTT11=
EXTT12=
EXTT13=
EXTT14=
EXTT15=
EXTT16=
EXTT17=
PLAYORDER=
